<svg xmlns="http://www.w3.org/2000/svg" xmlns:xlink="http://www.w3.org/1999/xlink" width="500" zoomAndPan="magnify" viewBox="0 0 375 374.999991" height="500" preserveAspectRatio="xMidYMid meet" version="1.0"><defs><g/><clipPath id="f35bfdd18e"><path d="M 79.4375 151 L 295.582031 151 L 295.582031 224 L 79.4375 224 Z M 79.4375 151 " clip-rule="nonzero"/></clipPath><clipPath id="6ac501ce7e"><path d="M 115.4375 151 L 259.5625 151 C 279.445312 151 295.5625 167.117188 295.5625 187 L 295.5625 188 C 295.5625 207.882812 279.445312 224 259.5625 224 L 115.4375 224 C 95.554688 224 79.4375 207.882812 79.4375 188 L 79.4375 187 C 79.4375 167.117188 95.554688 151 115.4375 151 Z M 115.4375 151 " clip-rule="nonzero"/></clipPath></defs><g clip-path="url(#f35bfdd18e)"><g clip-path="url(#6ac501ce7e)"><path fill="#7ed957" d="M 79.4375 151 L 295.582031 151 L 295.582031 224 L 79.4375 224 Z M 79.4375 151 " fill-opacity="1" fill-rule="nonzero"/></g></g><g fill="#ffffff" fill-opacity="1"><g transform="translate(141.371004, 196.000329)"><g><path d="M 15.109375 -7.984375 C 15.109375 -6.304688 14.828125 -4.84375 14.265625 -3.59375 C 13.703125 -2.351562 12.90625 -1.40625 11.875 -0.75 C 10.84375 -0.09375 9.640625 0.234375 8.265625 0.234375 C 6.921875 0.234375 5.726562 -0.09375 4.6875 -0.75 C 3.644531 -1.414062 2.835938 -2.359375 2.265625 -3.578125 C 1.691406 -4.804688 1.398438 -6.222656 1.390625 -7.828125 L 1.390625 -9.0625 C 1.390625 -10.695312 1.671875 -12.144531 2.234375 -13.40625 C 2.804688 -14.664062 3.613281 -15.628906 4.65625 -16.296875 C 5.695312 -16.960938 6.890625 -17.296875 8.234375 -17.296875 C 9.609375 -17.296875 10.816406 -16.960938 11.859375 -16.296875 C 12.898438 -15.640625 13.703125 -14.6875 14.265625 -13.4375 C 14.828125 -12.1875 15.109375 -10.726562 15.109375 -9.0625 Z M 12.875 -9.078125 C 12.875 -11.109375 12.46875 -12.660156 11.65625 -13.734375 C 10.84375 -14.816406 9.703125 -15.359375 8.234375 -15.359375 C 6.816406 -15.359375 5.695312 -14.816406 4.875 -13.734375 C 4.0625 -12.660156 3.644531 -11.160156 3.625 -9.234375 L 3.625 -7.984375 C 3.625 -6.023438 4.035156 -4.484375 4.859375 -3.359375 C 5.679688 -2.234375 6.816406 -1.671875 8.265625 -1.671875 C 9.710938 -1.671875 10.832031 -2.203125 11.625 -3.265625 C 12.425781 -4.328125 12.84375 -5.84375 12.875 -7.8125 Z M 12.875 -9.078125 "/></g></g><g transform="translate(157.871003, 196.000329)"><g><path d="M 15.09375 0 L 12.828125 0 L 4.25 -13.15625 L 4.25 0 L 1.984375 0 L 1.984375 -17.0625 L 4.25 -17.0625 L 12.859375 -3.859375 L 12.859375 -17.0625 L 15.09375 -17.0625 Z M 15.09375 0 "/></g></g><g transform="translate(174.980377, 196.000329)"><g><path d="M 11.40625 -4.453125 L 4.25 -4.453125 L 2.65625 0 L 0.328125 0 L 6.84375 -17.0625 L 8.8125 -17.0625 L 15.34375 0 L 13.03125 0 Z M 4.9375 -6.3125 L 10.734375 -6.3125 L 7.828125 -14.28125 Z M 4.9375 -6.3125 "/></g></g><g transform="translate(190.636626, 196.000329)"><g><path d="M 7.1875 -8.5 L 11.640625 -17.0625 L 14.1875 -17.0625 L 8.3125 -6.359375 L 8.3125 0 L 6.0625 0 L 6.0625 -6.359375 L 0.171875 -17.0625 L 2.75 -17.0625 Z M 7.1875 -8.5 "/></g></g><g transform="translate(205.050688, 196.000329)"><g><path d="M 4.25 -1.84375 L 12.328125 -1.84375 L 12.328125 0 L 1.984375 0 L 1.984375 -17.0625 L 4.25 -17.0625 Z M 4.25 -1.84375 "/></g></g><g transform="translate(217.964749, 196.000329)"><g><path d="M 11.40625 -4.453125 L 4.25 -4.453125 L 2.65625 0 L 0.328125 0 L 6.84375 -17.0625 L 8.8125 -17.0625 L 15.34375 0 L 13.03125 0 Z M 4.9375 -6.3125 L 10.734375 -6.3125 L 7.828125 -14.28125 Z M 4.9375 -6.3125 "/></g></g></g></svg>